<svg xmlns="http://www.w3.org/2000/svg" xmlns:xlink="http://www.w3.org/1999/xlink" width="243" height="168" viewBox="0 0 243 168">
    <defs>
        <rect id="a" width="120.264" height="120.264" x="111.907" y="34.907" rx="60.132"/>
        <filter id="b" width="131.6%" height="131.6%" x="-15.8%" y="-14.1%" filterUnits="objectBoundingBox">
            <feMorphology in="SourceAlpha" operator="dilate" radius="1" result="shadowSpreadOuter1"/>
            <feOffset dy="2" in="shadowSpreadOuter1" result="shadowOffsetOuter1"/>
            <feGaussianBlur in="shadowOffsetOuter1" result="shadowBlurOuter1" stdDeviation="5"/>
            <feColorMatrix in="shadowBlurOuter1" values="0 0 0 0 0.494117647 0 0 0 0 0.82745098 0 0 0 0 0.129411765 0 0 0 0.5 0"/>
        </filter>
    </defs>
    <g fill="none" fill-rule="evenodd" transform="translate(1)">
        <path stroke="#D8D8D8" stroke-linecap="square" stroke-width="3" d="M134.307 79.019L1.985 2.623"/>
        <mask id="c" fill="#fff">
            <use xlink:href="#a"/>
        </mask>
        <g transform="rotate(45 172.04 95.04)">
            <use fill="#000" filter="url(#b)" xlink:href="#a"/>
            <use fill="#F6F9FD" xlink:href="#a"/>
        </g>
        <g fill="#42210B" mask="url(#c)" opacity=".193">
            <path d="M76.613 64.286l1.194.357-.372 1.19.356.668 4.541-14.535-.014-.005-8.552-16.084-.455.242 8.463 15.916-3.781 12.101-1.735-.518.355.668zm17.608 33.116l1.194.356-.372 1.19.356.668 4.54-14.535-.013-.004-8.834-16.615 3.852-12.331 12.147 3.632 8.904 16.746-7.854 25.138.014.005 8.834 16.614-3.78 12.101-1.736-.519.356.669 1.193.357-.371 1.189.355.668 4.542-14.535-.014-.004-8.835-16.614 3.853-12.332 12.146 3.633 8.905 16.746-7.854 25.138.014.004 8.834 16.615-3.78 12.1-1.736-.518.356.668 1.193.357-.371 1.19.355.668 4.541-14.535-.014-.004-8.834-16.615 3.853-12.332 12.146 3.633 8.904 16.746-7.853 25.138.014.005 8.834 16.614-3.781 12.1-1.735-.518.355.669 1.194.357-.372 1.189.356.668 4.541-14.535-.014-.004-8.834-16.615 3.853-12.331 12.146 3.632 8.904 16.747-7.546 24.151.644-.342 3.46-11.073 11.113 3.324.61-.324-11.604-3.47 3.844-12.304 12.118 3.624-3.684 11.791.677-.36 7.532-24.109-.014-.004-8.834-16.615 3.853-12.331 12.146 3.632 8.904 16.746-7.545 24.152.643-.342 3.46-11.073 11.114 3.324.61-.324-11.605-3.47 3.844-12.304 12.118 3.624-3.684 11.791.677-.36 7.533-24.109-.015-.004-8.834-16.615 3.853-12.331 12.147 3.632 8.904 16.747-7.546 24.15.644-.341 3.459-11.073 11.114 3.324.61-.324-11.605-3.47 3.844-12.304 12.119 3.624-3.684 11.791.676-.36 7.533-24.109-.014-.004-8.834-16.615 3.852-12.331 1.504.45-.32-.603-1.064-.318.33-1.06-.32-.603-4.54 14.535.013.005 8.834 16.614-3.78 12.1-12.61-3.77-8.585-16.147 7.926-25.368-.014-.004-8.834-16.615 3.853-12.332 1.503.45-.32-.602-1.064-.319.331-1.06-.32-.602-4.541 14.535.013.004 8.835 16.615-3.781 12.1-12.61-3.77-8.585-16.147 7.926-25.369-.014-.004-8.834-16.614 3.853-12.332 1.504.45-.32-.603-1.065-.318.331-1.06-.32-.603-4.541 14.535.014.005 8.834 16.614-3.78 12.101-12.61-3.77-8.585-16.147 7.926-25.369-.014-.004-8.834-16.615 3.852-12.331 1.504.45-.32-.603-1.064-.318.33-1.06-.32-.603-4.54 14.535.013.004 8.834 16.615-3.78 12.1-12.61-3.77-8.585-16.147 7.926-25.368-.014-.005-8.552-16.084-.456.242 8.463 15.916-3.78 12.101-12.61-3.77-8.303-15.617-.455.242 8.543 16.066-7.854 25.138.014.004 8.834 16.615-3.78 12.1-12.61-3.77-8.585-16.147 7.926-25.368-.015-.005L140.204.551l-.455.242 8.463 15.916-3.78 12.101-12.61-3.77-8.303-15.617-.455.242 8.542 16.066-7.853 25.138.014.004 8.834 16.615-3.781 12.1-12.609-3.77-8.585-16.147 7.925-25.368-.014-.005-8.552-16.084-.455.242 8.463 15.916-3.78 12.101-12.61-3.77L90.3 27.086l-.456.242 8.543 16.066-7.854 25.138.014.004 8.834 16.615-3.78 12.1-1.735-.518.355.669zm12.961-38.118L95.064 55.66l3.844-12.304 12.118 3.624-3.844 12.304zm17.608 33.115l-12.118-3.624 3.844-12.304 12.118 3.624L124.79 92.4zm17.608 33.115l-12.119-3.624 3.844-12.303 12.119 3.624-3.844 12.303zm17.607 33.116l-12.118-3.624 3.844-12.304 12.118 3.624-3.844 12.304zm-13.577-45.926l-12.61-3.77-8.585-16.148 7.926-25.368-.014-.004-8.834-16.615 3.853-12.331L140.31 42.1l8.904 16.746-7.854 25.138.014.005 8.834 16.614-3.78 12.101zm17.607 33.116l-12.609-3.771-8.585-16.147 7.926-25.369-.014-.004-8.834-16.614 3.852-12.332 12.147 3.633 8.904 16.746-7.854 25.138.014.004 8.834 16.614-3.78 12.102zm17.608 33.115l-12.609-3.771-8.585-16.147 7.926-25.368-.014-.004-8.834-16.615 3.852-12.331 12.147 3.632 8.904 16.746-7.854 25.138.014.004 8.834 16.615-3.78 12.1zM140.401 41.62l-12.118-3.624 3.844-12.304 12.118 3.624-3.844 12.304zm17.608 33.115l-12.118-3.624 3.844-12.304 12.118 3.624-3.844 12.304zm17.608 33.115l-12.118-3.624 3.844-12.303 12.118 3.624-3.844 12.303zm17.608 33.116l-12.119-3.624 3.844-12.304 12.119 3.624-3.844 12.304zM179.647 95.04l-12.61-3.77-8.584-16.148 7.925-25.368-.014-.004-8.834-16.615 3.853-12.331 12.146 3.632 8.904 16.746-7.853 25.138.014.005 8.834 16.614-3.781 12.101zm17.608 33.116l-12.61-3.771-8.585-16.147 7.926-25.369-.014-.004-8.834-16.614 3.853-12.332 12.146 3.633 8.904 16.746-7.854 25.138.014.004 8.834 16.614-3.78 12.102zm17.608 33.115l-12.61-3.771-8.585-16.147 7.926-25.368-.014-.004-8.834-16.615 3.852-12.332 12.147 3.633 8.904 16.746-7.854 25.138.014.005 8.834 16.614-3.78 12.1zM173.62 23.958l-12.119-3.624 3.844-12.304 12.119 3.624-3.844 12.304zm17.607 33.115L179.11 53.45l3.844-12.304 12.118 3.624-3.844 12.304zm17.608 33.115l-12.118-3.624 3.844-12.303 12.118 3.624-3.844 12.303zm17.608 33.116l-12.118-3.624 3.844-12.304L230.288 111l-3.844 12.304zm35.13 23.372l3.46-11.073 1.503.45-.32-.603-1.064-.318.33-1.06-.32-.603-4.233 13.549.644-.342z"/>
        </g>
        <g fill="#97C473" fill-opacity=".85" fill-rule="nonzero" mask="url(#c)">
            <path d="M212.296 148.87c-6.8-5.289-11.107-4.478-16.558-6.962-1.553-.703-2.7-2.265-4.107-3.34-.62-.47-1.37-.917-2.111-1.033-2.527-.403-3.643-1.302-4.245-3.805-.786-3.282-1.344-6.563-.661-9.979.295-1.49.84-2.444 2.286-3.008 2.389-.934 12.063.754 14.886-2.637.72-.866-.622-2.529-.749-4.106-.113-1.447-5.663-23.657-6.359-25.53-1.658-4.458-2.994-9.17-3.827-12.556-.277-.444-.34-.89-.456-1.33-2.144-8.475-11.223-13.082-18.835-13.566-.768-.054-1.326.027-1.893.062-3.218.444-5.843 2.48-8.883 3.376-3.977 1.172-6.41 4.83-7.901 8.779-2.103 5.6-5.232 14.936-5.692 20.743-.62 7.75-2.849 12.764-5.407 20.016-.803 2.301 11.317 5.574 14.317 6.746 1.446.565 1.987 1.518 2.286 3.009.678 3.411.12 6.688-.656 9.978-.607 2.503-1.723 3.403-4.245 3.806-.742.116-1.491.56-2.112 1.034-1.402 1.074-2.553 2.636-4.11 3.339-5.452 2.49-10.947 4.884-16.558 6.96-8.617 3.196-14.304 8.747-15.706 18.134h113c-1.397-9.387-8.906-12.843-15.704-18.13z"/>
        </g>
        <path fill="#FFF" d="M83 41h48v64H83z"/>
        <path fill="#FFF" fill-rule="nonzero" d="M110 108.501c0 1.999-3 1.999-3 0 0-2.001 3-2.001 3 0"/>
        <path fill="#97C473" fill-rule="nonzero" d="M131.327 36H84.673C83.198 36 82 37.213 82 38.713v69.574c0 1.497 1.195 2.713 2.673 2.713h46.654c1.475 0 2.673-1.213 2.673-2.713V38.71c0-1.497-1.198-2.71-2.673-2.71zM108 38.677c.245 0 .441.2.441.448a.443.443 0 0 1-.441.448.443.443 0 0 1-.441-.448c0-.248.196-.448.441-.448zm0 71.24c-.937 0-1.697-.77-1.697-1.722 0-.951.76-1.723 1.697-1.723s1.697.772 1.697 1.723c0 .951-.76 1.723-1.697 1.723zm23.146-5.377H84.853V42.296h46.293v62.244z"/>
        <g fill="#97C473" fill-rule="nonzero">
            <path d="M104.08 60v7.08H97v8.84h7.08V83h8.84v-7.08H120v-8.84h-7.08V60z"/>
        </g>
    </g>
</svg>
