<svg xmlns="http://www.w3.org/2000/svg" xmlns:xlink="http://www.w3.org/1999/xlink" width="217" height="212" viewBox="0 0 217 212">
    <defs>
        <path id="a" d="M132.926 38.933c51.91 0 93.993 42.082 93.993 93.993 0 51.91-42.082 93.993-93.993 93.993-51.91 0-93.993-42.082-93.993-93.993 0-51.91 42.082-93.993 93.993-93.993z"/>
        <filter id="b" width="120.2%" height="120.2%" x="-10.1%" y="-9%" filterUnits="objectBoundingBox">
            <feMorphology in="SourceAlpha" operator="dilate" radius="1" result="shadowSpreadOuter1"/>
            <feOffset dy="2" in="shadowSpreadOuter1" result="shadowOffsetOuter1"/>
            <feGaussianBlur in="shadowOffsetOuter1" result="shadowBlurOuter1" stdDeviation="5"/>
            <feColorMatrix in="shadowBlurOuter1" values="0 0 0 0 0.0901960784 0 0 0 0 0.501960784 0 0 0 0 0.878431373 0 0 0 0.5 0"/>
        </filter>
    </defs>
    <g fill="none" fill-rule="evenodd" transform="translate(-21 -29)">
        <mask id="c" fill="#fff">
            <use xlink:href="#a"/>
        </mask>
        <g transform="rotate(45 132.926 132.926)">
            <use fill="#000" filter="url(#b)" xlink:href="#a"/>
            <use fill="#F6F9FD" xlink:href="#a"/>
        </g>
        <g mask="url(#c)">
            <path fill="#D0D0D0" d="M187.653 41l-1.304 1.31-1.304-1.31h-1.127l15.938 16.008.015-.016H227v-.761h-26.846l-13.268-13.327L188.78 41h-1.128zm-55.855 0l-1.303 1.31L129.19 41h-1.128l15.938 16.008.015-.016h28.023l13.522 13.581L172.29 83.9h-28.244l-27.564-27.685-.016.016H88.444L75.176 42.904 77.07 41h-1.128l-1.304 1.31L73.336 41h-1.128l15.938 16.008.015-.016h28.023l13.522 13.581L116.437 83.9H88.191L60.628 56.215l-.015.016H32.589L19.321 42.904 21.216 41H20.09l-1.304 1.31L17.48 41h-1.128l15.938 16.008.015-.016h28.023l13.522 13.581L60.58 83.9H32.338L4.773 56.215l-.015.016h-28.024l-13.268-13.327L-34.64 41h-1.128l-1.303 1.31-1.304-1.31h-1.128l15.938 16.008.015-.016H4.474l13.522 13.581L4.727 83.9h-28.245L-50 57.302v1.077l12.14 12.194L-50 82.767v1.021l12.677-12.732 13.49 13.55-13.237 13.296L-50 84.915v1.133l26.436 26.552.015-.015H4.474l13.522 13.58-13.269 13.327h-28.245L-50 112.894v1.077l12.14 12.194L-50 138.36v1.02l12.677-12.732 13.49 13.55-13.237 13.296L-50 140.508v1.132l26.436 26.553.015-.016H4.474l13.522 13.58-13.269 13.328h-28.245L-50 168.487v1.077l12.14 12.194L-50 193.952v1.02l12.677-12.732 13.49 13.55-13.237 13.297L-50 196.1v1.133l26.436 26.552.015-.016H4.474l13.522 13.581-1.643 1.65h1.017l1.162-1.167L19.694 239h1.017L4.773 222.992l-.015.016h-28.024l-13.268-13.327 13.774-13.835H4.474l27.817 27.939.015-.016h28.023l13.522 13.581-1.643 1.65h1.017l1.162-1.167L75.549 239h1.016l-15.937-16.008-.015.016H32.589L19.321 209.68l13.774-13.835h27.234l27.817 27.939.015-.016h28.023l13.522 13.581-1.643 1.65h1.017l1.162-1.167 1.162 1.167h1.017l-15.938-16.008-.016.016H88.444L75.176 209.68l13.774-13.835h27.234l27.817 27.939.015-.016h28.023l13.522 13.581-1.643 1.65h1.016l1.163-1.167 1.162 1.167h1.016l-15.937-16.008-.015.016h-28.024l-13.268-13.327 13.774-13.835h27.234l27.817 27.939.015-.016H227v-.761h-26.846l-13.268-13.327 13.774-13.835H227v-.761h-27.099L172.338 167.4l-.015.016h-28.024l-13.268-13.327 13.774-13.835h27.234l27.817 27.939.015-.016H227v-.761h-26.846l-13.268-13.327 13.774-13.835H227v-.762h-27.099l-27.563-27.684-.015.015h-28.024l-13.268-13.327 13.774-13.834h27.234l27.817 27.938.015-.015H227v-.762h-26.846l-13.268-13.327 13.774-13.834H227V83.9h-27.099l-27.563-27.685-.015.016h-28.024l-13.268-13.327L132.926 41h-1.128zm41.06 43.352l13.239-13.296 13.49 13.55-13.238 13.296-13.49-13.55zm-55.854 0l13.238-13.296 13.49 13.55-13.237 13.296-13.491-13.55zm-55.855 0l13.238-13.296 13.49 13.55L74.64 97.902l-13.49-13.55zm-55.855 0l13.238-13.296 13.49 13.55-13.237 13.296-13.491-13.55zm69.882 14.144L88.95 84.662h27.234l27.817 27.938.015-.015h28.023l13.522 13.58-13.27 13.327h-28.244l-27.564-27.684-.016.015H88.444L75.176 98.496zm-55.855 0l13.774-13.834h27.234L88.146 112.6l.015-.015h28.023l13.522 13.58-13.269 13.327H88.191l-27.563-27.684-.015.015H32.589L19.321 98.496zm-55.855 0l13.774-13.834H4.474L32.291 112.6l.015-.015h28.023l13.522 13.58-13.27 13.327H32.338L4.773 111.808l-.015.015h-28.024l-13.268-13.327zm209.393 41.448l13.238-13.296 13.49 13.55-13.238 13.296-13.49-13.55zm-55.855 0l13.238-13.296 13.49 13.55-13.237 13.296-13.491-13.55zm-55.855 0l13.238-13.296 13.49 13.55-13.238 13.296-13.49-13.55zm-55.855 0l13.238-13.296 13.49 13.55-13.237 13.296-13.491-13.55zm69.882 14.145l13.774-13.835h27.234l27.817 27.939.015-.016h28.023l13.522 13.58-13.27 13.328h-28.244L116.483 167.4l-.016.016H88.444l-13.268-13.327zm-55.855 0l13.774-13.835h27.234l27.817 27.939.015-.016h28.023l13.522 13.58-13.269 13.328H88.191L60.628 167.4l-.015.016H32.589l-13.268-13.327zm-55.855 0l13.774-13.835H4.474l27.817 27.939.015-.016h28.023l13.522 13.58-13.27 13.328H32.338L4.773 167.4l-.015.016h-28.024l-13.268-13.327zm209.393 41.448l13.238-13.297 13.49 13.55-13.238 13.297-13.49-13.55zm-55.855 0l13.238-13.297 13.49 13.55-13.237 13.297-13.491-13.55zm-55.855 0l13.238-13.297 13.49 13.55-13.238 13.297-13.49-13.55zm-55.855 0l13.238-13.297 13.49 13.55-13.237 13.297-13.491-13.55zM-50 225.156l12.14 12.194-1.642 1.65h1.017l1.162-1.167 1.162 1.167h1.017L-50 224.079v1.077z"/>
            <g fill="#91B7DC" fill-opacity=".85" fill-rule="nonzero">
                <path d="M147.7 179.213v-5.504s17.15.537 25.3-7.867c0 0-11.84-3.384-9.717-25.213 2.124-21.803-2.655-40.947-19.991-39.336 0 0-7.513-9.156-22.46-3.383-5.124 1.987-18.903 6.954-18.213 37.188C103.31 165.305 92 165.493 92 165.493s5.84 8.592 25.646 8.404v5.638L132.699 224l15.027-44.384-.027-.403z"/>
                <path d="M188.97 223.563l-3.056-17.25c-.992-5.585-4.53-10.376-9.516-12.895l-19.14-9.638c-1.098-.548-2.17-1.178-3.243-1.78l6.032 18.18-8.444-.657L133 222.906l-18.603-23.383-8.443.657 6.165-18.18-3.833 1.999-18.684 9.419c-4.985 2.519-8.524 7.31-9.516 12.896l-3.055 17.25c-.215 1.259.723 2.436 1.983 2.436h107.918c1.314 0 2.252-1.177 2.037-2.437z"/>
            </g>
        </g>
        <path fill="#FFF" d="M32 45h69v44H32z"/>
        <path stroke="#91B7DC" stroke-linecap="square" d="M50.5 51.5h42.012M50.5 54.5h18.028M71.5 54.5h21.024M50.5 57.5h21.024M73.5 57.5h8.062M84.5 57.5h8.062"/>
        <path fill="#91B7DC" fill-rule="nonzero" d="M99.266 41.801H32.993a3.56 3.56 0 0 0-3.563 3.563l.004 42.605a3.56 3.56 0 0 0 3.563 3.562H99.27a3.56 3.56 0 0 0 3.562-3.563l-.003-42.604a3.56 3.56 0 0 0-3.563-3.563zm.566 46.09H31.977V45.329h67.855v42.562zM74.629 91.914v.777H70.16l-12.789.004v-.777l-36.344-.004v.691c.766 1.118 10.95 1.594 10.95 1.594h68.046s10.184-.476 10.95-1.594v-.691H74.628z"/>
        <path fill="#91B7DC" fill-rule="nonzero" d="M45.313 56.188h-.563a1.125 1.125 0 0 1-1.125-1.125V54.7c.249-.296.427-.646.538-1.015.012-.063.072-.093.112-.136a.695.695 0 0 0 .096-.838c-.022-.039-.062-.073-.06-.122 0-.33.002-.66 0-.99-.009-.398-.122-.812-.401-1.106a1.57 1.57 0 0 0-.854-.44 2.834 2.834 0 0 0-1.224.028c-.347.087-.672.29-.873.59-.178.262-.256.579-.269.891-.005.336-.001.672-.002 1.009.008.067-.05.113-.075.169a.697.697 0 0 0 .159.852c.062.043.074.121.096.188.107.333.283.64.507.908v.374c0 .62-.504 1.125-1.125 1.125h-.562s-1.02.28-1.688 1.687v.563c0 .31.252.562.563.562h7.875c.31 0 .562-.252.562-.562v-.563c-.668-1.406-1.687-1.687-1.687-1.687z"/>
        <g fill="#91B7DC" fill-rule="nonzero">
            <path d="M82.003 64.217a1.808 1.808 0 1 0-2.218 2.491l-7.562 5.773a1.777 1.777 0 0 0-.585-.346 1.81 1.81 0 0 0-1.717.307l-3.785-3.494c.118-.152.221-.332.287-.523a1.813 1.813 0 0 0-1.118-2.3 1.813 1.813 0 0 0-2.296 1.125c-.159.46-.12.941.07 1.352l-7.29 5.125-.01-.004a1.782 1.782 0 0 0-.603-.363 1.813 1.813 0 0 0-2.297 1.124 1.813 1.813 0 0 0 1.118 2.3 1.813 1.813 0 0 0 2.297-1.124c.159-.463.111-.945-.082-1.357l7.286-5.114c.176.161.391.279.628.36a1.79 1.79 0 0 0 1.44-.126l3.885 3.587a1.72 1.72 0 0 0-.11.25 1.813 1.813 0 0 0 1.118 2.3 1.813 1.813 0 0 0 2.297-1.125c.162-.47.117-.964-.085-1.381l7.547-5.766c.172.153.375.273.606.352a1.813 1.813 0 0 0 2.297-1.124 1.813 1.813 0 0 0-1.118-2.3zm-.236.684c.57.196.868.81.671 1.38a1.08 1.08 0 0 1-1.378.674 1.08 1.08 0 0 1-.67-1.38 1.08 1.08 0 0 1 1.377-.674zm-16.698 1.91c.57.195.868.808.671 1.38a1.08 1.08 0 0 1-1.378.673 1.08 1.08 0 0 1-.67-1.38 1.08 1.08 0 0 1 1.377-.674zm6.333 6.01c.57.195.868.808.671 1.379a1.08 1.08 0 0 1-1.378.674 1.08 1.08 0 0 1-.67-1.38 1.08 1.08 0 0 1 1.377-.674zM54.94 74.044c.57.196.867.808.67 1.38a1.08 1.08 0 0 1-1.377.674 1.08 1.08 0 0 1-.67-1.38 1.08 1.08 0 0 1 1.377-.674z"/>
        </g>
    </g>
</svg>
