<svg xmlns="http://www.w3.org/2000/svg" xmlns:xlink="http://www.w3.org/1999/xlink" width="240" height="164" viewBox="0 0 240 164">
    <defs>
        <rect id="a" width="120.264" height="120.264" x="108.907" y="24.907" rx="60.132"/>
        <filter id="b" width="131.6%" height="131.6%" x="-15.8%" y="-14.1%" filterUnits="objectBoundingBox">
            <feMorphology in="SourceAlpha" operator="dilate" radius="1" result="shadowSpreadOuter1"/>
            <feOffset dy="2" in="shadowSpreadOuter1" result="shadowOffsetOuter1"/>
            <feGaussianBlur in="shadowOffsetOuter1" result="shadowBlurOuter1" stdDeviation="5"/>
            <feColorMatrix in="shadowBlurOuter1" values="0 0 0 0 0.294117647 0 0 0 0 0.388235294 0 0 0 0 0.682352941 0 0 0 0.5 0"/>
        </filter>
    </defs>
    <g fill="none" fill-rule="evenodd" transform="translate(0 -14)">
        <path stroke="#D8D8D8" stroke-linecap="square" stroke-width="3" d="M134.329 99.019L2.007 175.415"/>
        <mask id="c" fill="#fff">
            <use xlink:href="#a"/>
        </mask>
        <g transform="rotate(45 169.04 85.04)">
            <use fill="#000" filter="url(#b)" xlink:href="#a"/>
            <use fill="#F6F9FD" xlink:href="#a"/>
        </g>
        <g fill="#42210B" mask="url(#c)" opacity=".193">
            <path d="M145.757-10.582l.35 1.196-1.2.336-.366.662 14.663-4.108-.004-.014 8.832-15.933-.451-.25-8.74 15.767-12.207 3.42-.51-1.738-.367.662zm-18.183 32.803l.35 1.196-1.2.336-.366.662 14.663-4.108-.004-.014 9.123-16.457L162.58.35l3.569 12.166-9.195 16.588-25.36 7.104.004.014-9.123 16.458-12.207 3.42-.51-1.738-.367.662.35 1.196-1.2.336-.366.662 14.663-4.108-.004-.014 9.123-16.458 12.44-3.485 3.569 12.165-9.195 16.589-25.36 7.104.004.014-9.123 16.458-12.207 3.42-.51-1.738-.367.662.35 1.196-1.2.336-.366.662 14.663-4.108-.004-.014 9.123-16.457 12.44-3.486 3.569 12.166-9.195 16.588-25.36 7.104.004.014-9.123 16.458-12.207 3.42-.51-1.738-.367.662.35 1.196-1.2.336-.366.662 14.663-4.108-.004-.014 9.123-16.458 12.44-3.485 3.569 12.165-9.195 16.589-24.365 6.825.638.354 11.17-3.13 3.266 11.132.604.335-3.41-11.623 12.413-3.477 3.56 12.137-11.896 3.332.67.372 24.323-6.814-.004-.014 9.123-16.458 12.44-3.485 3.569 12.166-9.195 16.588-24.365 6.825.638.354 11.17-3.13 3.266 11.132.604.335-3.41-11.623 12.412-3.477 3.561 12.137-11.896 3.332.67.372 24.323-6.814-.004-.014 9.122-16.458 12.441-3.485 3.569 12.166-9.195 16.588-24.365 6.825.638.354 11.17-3.13 3.265 11.132.605.335-3.41-11.623 12.412-3.477 3.561 12.137-11.896 3.333.67.371 24.323-6.814-.004-.014 9.123-16.457 12.44-3.486.442 1.507.33-.598-.312-1.065 1.07-.3.33-.597-14.663 4.108.004.014-9.123 16.458-12.208 3.42-3.705-12.629 8.866-15.994 25.593-7.17-.004-.014 9.122-16.457 12.441-3.486.442 1.507.33-.597-.312-1.066 1.07-.3.33-.597-14.663 4.108.004.014-9.123 16.458-12.208 3.42-3.705-12.629L195.963 115l25.593-7.17-.004-.014 9.123-16.457 12.44-3.485.442 1.506.33-.598-.312-1.065 1.07-.3.33-.597-14.663 4.108.004.014-9.123 16.458-12.208 3.42-3.705-12.629 8.866-15.994 25.593-7.17-.004-.014 9.123-16.457 12.44-3.486.442 1.506.33-.596-.312-1.066 1.07-.3.33-.597-14.663 4.108.004.014-9.123 16.458-12.208 3.42-3.705-12.629 8.866-15.994 25.593-7.17-.004-.014 8.832-15.932-.451-.25-8.74 15.766-12.208 3.42-3.705-12.629 8.575-15.47-.45-.249-8.822 15.915-25.36 7.104.004.014-9.123 16.458-12.207 3.42-3.705-12.629 8.866-15.994 25.592-7.17-.004-.014 8.831-15.933-.45-.25-8.74 15.767-12.207 3.42-3.705-12.629 8.575-15.47-.451-.249-8.822 15.915-25.36 7.104.004.014-9.122 16.458-12.209 3.42-3.704-12.629 8.866-15.994 25.592-7.17-.004-.014 8.832-15.932-.451-.25-8.74 15.766-12.208 3.42-3.704-12.629 8.575-15.47-.451-.25-8.822 15.916-25.36 7.104.004.014-9.123 16.458-12.207 3.42-.51-1.738-.367.662zm39.027-9.89L163.04.194l12.412-3.477 3.56 12.137-12.412 3.477zm-18.183 32.803l-3.56-12.137 12.412-3.477 3.56 12.137-12.412 3.477zm-18.183 32.803l-3.56-12.137 12.412-3.477 3.56 12.137-12.412 3.477zm-18.183 32.803l-3.56-12.137 12.412-3.477 3.56 12.137-12.412 3.477zm31.121-36.4L139.47 61.71l8.866-15.994 25.592-7.17-.004-.014 9.123-16.457 12.44-3.486 3.569 12.166-9.195 16.588-25.36 7.104.004.014-9.122 16.458-12.209 3.42zm-18.183 32.803l-3.704-12.629 8.866-15.994 25.592-7.17-.004-.014 9.123-16.458 12.44-3.485 3.57 12.166-9.196 16.588-25.36 7.104.004.014-9.123 16.458-12.208 3.42zm-18.183 32.803l-3.704-12.629 8.866-15.994 25.592-7.17-.004-.014 9.123-16.457 12.44-3.486 3.569 12.166-9.195 16.588-25.36 7.104.004.014-9.123 16.458-12.208 3.42zm92.7-109.375l-3.56-12.137 12.412-3.477 3.56 12.137-12.412 3.477zm-18.183 32.803l-3.56-12.137 12.412-3.477 3.56 12.137-12.412 3.477zm-18.183 32.803l-3.56-12.137 12.412-3.477 3.56 12.137-12.412 3.477zm-18.183 32.803l-3.56-12.137 12.412-3.477 3.56 12.137-12.412 3.477zm31.122-36.4l-3.705-12.629 8.866-15.994 25.592-7.17-.004-.014 9.122-16.457 12.441-3.486 3.569 12.166-9.195 16.588-25.36 7.104.004.014-9.123 16.458-12.207 3.42zm-18.183 32.803l-3.705-12.629 8.865-15.994 25.593-7.17-.004-.014 9.123-16.458 12.44-3.484 3.569 12.165-9.195 16.588-25.36 7.104.004.014-9.123 16.458-12.207 3.42zm-18.183 32.803l-3.705-12.629 8.866-15.994 25.592-7.17-.004-.014 9.122-16.457 12.441-3.486 3.569 12.166-9.195 16.588-25.36 7.104.004.014-9.123 16.458-12.207 3.42zm92.699-109.375l-3.56-12.137 12.411-3.477 3.561 12.137-12.412 3.477zM214.23 81.614l-3.56-12.137L223.081 66l3.56 12.137-12.412 3.477zm-18.183 32.803l-3.56-12.137 12.411-3.477 3.561 12.137-12.412 3.477zm-18.183 32.803l-3.56-12.137 12.412-3.477 3.56 12.137-12.412 3.477zm-.468 42.192l11.17-3.13.442 1.507.33-.597-.312-1.066 1.07-.3.33-.597-13.668 3.83.638.353z"/>
        </g>
        <g fill="#4B63AE" fill-opacity=".85" fill-rule="nonzero" mask="url(#c)">
            <path d="M219.983 136.741V147l-99.967-.004v-10.259s-1.796-3.21 32.125-18.257c0 0 0-6.139 1.234-6.45 0 0 1.84.91 2.54-2.202-8.2 1.906-14.531-4.054-14.531-4.054 13.57 1.844 5.242-16.634 5.242-16.634-7.934-30.986 11.995-39.222 17.175-36.756 1.942-5.01 38.632-5.917 28.78 36.756 0 0-8.323 18.479 5.243 16.634 0 0-5.906 5.563-13.699 4.225.727 2.914 2.5 2.031 2.5 2.031 1.234.307 1.234 6.45 1.234 6.45 33.918 15.051 32.125 18.261 32.125 18.261z"/>
        </g>
        <g fill-rule="nonzero">
            <path fill="#4B63AE" d="M120 147c0 2.667-4 2.667-4 0s4-2.667 4 0M115.102 95.48h4.796c.052.041.102-.075.102-.238 0-.157-.05-.28-.102-.232h-4.796c-.05-.047-.102.075-.102.232 0 .163.052.279.102.238zM114 94.5c0 .667-1 .667-1 0s1-.667 1 0"/>
            <path fill="#4B63AE" d="M132.853 102.555a.126.126 0 0 0-.06 0v-7.32a4.23 4.23 0 0 0-1.244-2.994A4.257 4.257 0 0 0 128.545 91h-21.082a4.241 4.241 0 0 0-4.25 4.235v2.94a.106.106 0 0 0-.066 0 .152.152 0 0 0-.147.152v1.815c0 .08.064.149.147.15a.106.106 0 0 0 .066 0v2.312h-.066a.146.146 0 0 0-.147.144v3.63c0 .081.066.147.147.147a.157.157 0 0 0 .066 0v.865a.106.106 0 0 0-.066 0 .146.146 0 0 0-.147.144v3.63c0 .08.066.147.147.147a.157.157 0 0 0 .066 0v35.456-.002a4.241 4.241 0 0 0 4.25 4.235h21.082a4.243 4.243 0 0 0 4.249-4.235V106.44h.061-.002c.04 0 .076-.015.104-.043a.151.151 0 0 0 .043-.102v-3.594a.148.148 0 0 0-.147-.147zm-17.433-8.029h5.008a.18.18 0 0 1 .17.17.17.17 0 0 1-.17.163h-5.008a.17.17 0 0 1-.17-.163.18.18 0 0 1 .17-.17zm-2.502-.248c.171 0 .323.102.387.258a.417.417 0 1 1-.545.546.417.417 0 0 1 .158-.804zM118 149.215c-.842 0-1.6-.505-1.923-1.28a2.07 2.07 0 0 1 .45-2.262 2.087 2.087 0 0 1 2.27-.45 2.075 2.075 0 0 1 1.285 1.917 2.084 2.084 0 0 1-2.082 2.075zm13.039-5.19h-26.102V97.85h26.102v46.176z"/>
            <path fill="#FFF" d="M105 98h26v46h-26z"/>
            <path fill="#4B63AE" d="M119.316 127.815l-2.518-7.465-2.03 4.708H108l5.292-1.177L116.969 113l2.78 10.034 2.023-4.903 1.442 5.75 3.588 1.177h-4.292l-.687-1.531z"/>
        </g>
    </g>
</svg>
