<svg xmlns="http://www.w3.org/2000/svg" xmlns:xlink="http://www.w3.org/1999/xlink" width="473" height="430" viewBox="0 0 473 430">
    <defs>
        <rect id="a" width="120.264" height="120.264" x="111.907" y="34.907" rx="60.132"/>
        <filter id="b" width="131.6%" height="131.6%" x="-15.8%" y="-14.1%" filterUnits="objectBoundingBox">
            <feMorphology in="SourceAlpha" operator="dilate" radius="1" result="shadowSpreadOuter1"/>
            <feOffset dy="2" in="shadowSpreadOuter1" result="shadowOffsetOuter1"/>
            <feGaussianBlur in="shadowOffsetOuter1" result="shadowBlurOuter1" stdDeviation="5"/>
            <feColorMatrix in="shadowBlurOuter1" values="0 0 0 0 0.494117647 0 0 0 0 0.82745098 0 0 0 0 0.129411765 0 0 0 0.5 0"/>
        </filter>
        <rect id="d" width="120.264" height="120.264" x="145.907" y="24.907" rx="60.132"/>
        <filter id="e" width="131.6%" height="131.6%" x="-15.8%" y="-14.1%" filterUnits="objectBoundingBox">
            <feMorphology in="SourceAlpha" operator="dilate" radius="1" result="shadowSpreadOuter1"/>
            <feOffset dy="2" in="shadowSpreadOuter1" result="shadowOffsetOuter1"/>
            <feGaussianBlur in="shadowOffsetOuter1" result="shadowBlurOuter1" stdDeviation="5"/>
            <feColorMatrix in="shadowBlurOuter1" values="0 0 0 0 1 0 0 0 0 0.815686275 0 0 0 0 0.482352941 0 0 0 1 0"/>
        </filter>
        <rect id="g" width="120.264" height="120.264" x="108.907" y="24.907" rx="60.132"/>
        <filter id="h" width="131.6%" height="131.6%" x="-15.8%" y="-14.1%" filterUnits="objectBoundingBox">
            <feMorphology in="SourceAlpha" operator="dilate" radius="1" result="shadowSpreadOuter1"/>
            <feOffset dy="2" in="shadowSpreadOuter1" result="shadowOffsetOuter1"/>
            <feGaussianBlur in="shadowOffsetOuter1" result="shadowBlurOuter1" stdDeviation="5"/>
            <feColorMatrix in="shadowBlurOuter1" values="0 0 0 0 0.294117647 0 0 0 0 0.388235294 0 0 0 0 0.682352941 0 0 0 0.5 0"/>
        </filter>
        <path id="j" d="M132.926 38.933c51.91 0 93.993 42.082 93.993 93.993 0 51.91-42.082 93.993-93.993 93.993-51.91 0-93.993-42.082-93.993-93.993 0-51.91 42.082-93.993 93.993-93.993z"/>
        <filter id="k" width="120.2%" height="120.2%" x="-10.1%" y="-9%" filterUnits="objectBoundingBox">
            <feMorphology in="SourceAlpha" operator="dilate" radius="1" result="shadowSpreadOuter1"/>
            <feOffset dy="2" in="shadowSpreadOuter1" result="shadowOffsetOuter1"/>
            <feGaussianBlur in="shadowOffsetOuter1" result="shadowBlurOuter1" stdDeviation="5"/>
            <feColorMatrix in="shadowBlurOuter1" values="0 0 0 0 0.0901960784 0 0 0 0 0.501960784 0 0 0 0 0.878431373 0 0 0 0.5 0"/>
        </filter>
    </defs>
    <g fill="none" fill-rule="evenodd">
        <g transform="translate(186 262)">
            <path stroke="#D8D8D8" stroke-linecap="square" stroke-width="3" d="M134.307 79.019L1.985 2.623"/>
            <mask id="c" fill="#fff">
                <use xlink:href="#a"/>
            </mask>
            <g transform="rotate(45 172.04 95.04)">
                <use fill="#000" filter="url(#b)" xlink:href="#a"/>
                <use fill="#F6F9FD" xlink:href="#a"/>
            </g>
            <g fill="#42210B" mask="url(#c)" opacity=".193">
                <path d="M76.613 64.286l1.194.357-.372 1.19.356.668 4.541-14.535-.014-.005-8.552-16.084-.455.242 8.463 15.916-3.781 12.101-1.735-.518.355.668zm17.608 33.116l1.194.356-.372 1.19.356.668 4.54-14.535-.013-.004-8.834-16.615 3.852-12.331 12.147 3.632 8.904 16.746-7.854 25.138.014.005 8.834 16.614-3.78 12.101-1.736-.519.356.669 1.193.357-.371 1.189.355.668 4.542-14.535-.014-.004-8.835-16.614 3.853-12.332 12.146 3.633 8.905 16.746-7.854 25.138.014.004 8.834 16.615-3.78 12.1-1.736-.518.356.668 1.193.357-.371 1.19.355.668 4.541-14.535-.014-.004-8.834-16.615 3.853-12.332 12.146 3.633 8.904 16.746-7.853 25.138.014.005 8.834 16.614-3.781 12.1-1.735-.518.355.669 1.194.357-.372 1.189.356.668 4.541-14.535-.014-.004-8.834-16.615 3.853-12.331 12.146 3.632 8.904 16.747-7.546 24.151.644-.342 3.46-11.073 11.113 3.324.61-.324-11.604-3.47 3.844-12.304 12.118 3.624-3.684 11.791.677-.36 7.532-24.109-.014-.004-8.834-16.615 3.853-12.331 12.146 3.632 8.904 16.746-7.545 24.152.643-.342 3.46-11.073 11.114 3.324.61-.324-11.605-3.47 3.844-12.304 12.118 3.624-3.684 11.791.677-.36 7.533-24.109-.015-.004-8.834-16.615 3.853-12.331 12.147 3.632 8.904 16.747-7.546 24.15.644-.341 3.459-11.073 11.114 3.324.61-.324-11.605-3.47 3.844-12.304 12.119 3.624-3.684 11.791.676-.36 7.533-24.109-.014-.004-8.834-16.615 3.852-12.331 1.504.45-.32-.603-1.064-.318.33-1.06-.32-.603-4.54 14.535.013.005 8.834 16.614-3.78 12.1-12.61-3.77-8.585-16.147 7.926-25.368-.014-.004-8.834-16.615 3.853-12.332 1.503.45-.32-.602-1.064-.319.331-1.06-.32-.602-4.541 14.535.013.004 8.835 16.615-3.781 12.1-12.61-3.77-8.585-16.147 7.926-25.369-.014-.004-8.834-16.614 3.853-12.332 1.504.45-.32-.603-1.065-.318.331-1.06-.32-.603-4.541 14.535.014.005 8.834 16.614-3.78 12.101-12.61-3.77-8.585-16.147 7.926-25.369-.014-.004-8.834-16.615 3.852-12.331 1.504.45-.32-.603-1.064-.318.33-1.06-.32-.603-4.54 14.535.013.004 8.834 16.615-3.78 12.1-12.61-3.77-8.585-16.147 7.926-25.368-.014-.005-8.552-16.084-.456.242 8.463 15.916-3.78 12.101-12.61-3.77-8.303-15.617-.455.242 8.543 16.066-7.854 25.138.014.004 8.834 16.615-3.78 12.1-12.61-3.77-8.585-16.147 7.926-25.368-.015-.005L140.204.551l-.455.242 8.463 15.916-3.78 12.101-12.61-3.77-8.303-15.617-.455.242 8.542 16.066-7.853 25.138.014.004 8.834 16.615-3.781 12.1-12.609-3.77-8.585-16.147 7.925-25.368-.014-.005-8.552-16.084-.455.242 8.463 15.916-3.78 12.101-12.61-3.77L90.3 27.086l-.456.242 8.543 16.066-7.854 25.138.014.004 8.834 16.615-3.78 12.1-1.735-.518.355.669zm12.961-38.118L95.064 55.66l3.844-12.304 12.118 3.624-3.844 12.304zm17.608 33.115l-12.118-3.624 3.844-12.304 12.118 3.624L124.79 92.4zm17.608 33.115l-12.119-3.624 3.844-12.303 12.119 3.624-3.844 12.303zm17.607 33.116l-12.118-3.624 3.844-12.304 12.118 3.624-3.844 12.304zm-13.577-45.926l-12.61-3.77-8.585-16.148 7.926-25.368-.014-.004-8.834-16.615 3.853-12.331L140.31 42.1l8.904 16.746-7.854 25.138.014.005 8.834 16.614-3.78 12.101zm17.607 33.116l-12.609-3.771-8.585-16.147 7.926-25.369-.014-.004-8.834-16.614 3.852-12.332 12.147 3.633 8.904 16.746-7.854 25.138.014.004 8.834 16.614-3.78 12.102zm17.608 33.115l-12.609-3.771-8.585-16.147 7.926-25.368-.014-.004-8.834-16.615 3.852-12.331 12.147 3.632 8.904 16.746-7.854 25.138.014.004 8.834 16.615-3.78 12.1zM140.401 41.62l-12.118-3.624 3.844-12.304 12.118 3.624-3.844 12.304zm17.608 33.115l-12.118-3.624 3.844-12.304 12.118 3.624-3.844 12.304zm17.608 33.115l-12.118-3.624 3.844-12.303 12.118 3.624-3.844 12.303zm17.608 33.116l-12.119-3.624 3.844-12.304 12.119 3.624-3.844 12.304zM179.647 95.04l-12.61-3.77-8.584-16.148 7.925-25.368-.014-.004-8.834-16.615 3.853-12.331 12.146 3.632 8.904 16.746-7.853 25.138.014.005 8.834 16.614-3.781 12.101zm17.608 33.116l-12.61-3.771-8.585-16.147 7.926-25.369-.014-.004-8.834-16.614 3.853-12.332 12.146 3.633 8.904 16.746-7.854 25.138.014.004 8.834 16.614-3.78 12.102zm17.608 33.115l-12.61-3.771-8.585-16.147 7.926-25.368-.014-.004-8.834-16.615 3.852-12.332 12.147 3.633 8.904 16.746-7.854 25.138.014.005 8.834 16.614-3.78 12.1zM173.62 23.958l-12.119-3.624 3.844-12.304 12.119 3.624-3.844 12.304zm17.607 33.115L179.11 53.45l3.844-12.304 12.118 3.624-3.844 12.304zm17.608 33.115l-12.118-3.624 3.844-12.303 12.118 3.624-3.844 12.303zm17.608 33.116l-12.118-3.624 3.844-12.304L230.288 111l-3.844 12.304zm35.13 23.372l3.46-11.073 1.503.45-.32-.603-1.064-.318.33-1.06-.32-.603-4.233 13.549.644-.342z"/>
            </g>
            <g fill="#97C473" fill-opacity=".85" fill-rule="nonzero" mask="url(#c)">
                <path d="M212.296 148.87c-6.8-5.289-11.107-4.478-16.558-6.962-1.553-.703-2.7-2.265-4.107-3.34-.62-.47-1.37-.917-2.111-1.033-2.527-.403-3.643-1.302-4.245-3.805-.786-3.282-1.344-6.563-.661-9.979.295-1.49.84-2.444 2.286-3.008 2.389-.934 12.063.754 14.886-2.637.72-.866-.622-2.529-.749-4.106-.113-1.447-5.663-23.657-6.359-25.53-1.658-4.458-2.994-9.17-3.827-12.556-.277-.444-.34-.89-.456-1.33-2.144-8.475-11.223-13.082-18.835-13.566-.768-.054-1.326.027-1.893.062-3.218.444-5.843 2.48-8.883 3.376-3.977 1.172-6.41 4.83-7.901 8.779-2.103 5.6-5.232 14.936-5.692 20.743-.62 7.75-2.849 12.764-5.407 20.016-.803 2.301 11.317 5.574 14.317 6.746 1.446.565 1.987 1.518 2.286 3.009.678 3.411.12 6.688-.656 9.978-.607 2.503-1.723 3.403-4.245 3.806-.742.116-1.491.56-2.112 1.034-1.402 1.074-2.553 2.636-4.11 3.339-5.452 2.49-10.947 4.884-16.558 6.96-8.617 3.196-14.304 8.747-15.706 18.134h113c-1.397-9.387-8.906-12.843-15.704-18.13z"/>
            </g>
            <path fill="#FFF" d="M83 41h48v64H83z"/>
            <path fill="#FFF" fill-rule="nonzero" d="M110 108.501c0 1.999-3 1.999-3 0 0-2.001 3-2.001 3 0"/>
            <path fill="#97C473" fill-rule="nonzero" d="M131.327 36H84.673C83.198 36 82 37.213 82 38.713v69.574c0 1.497 1.195 2.713 2.673 2.713h46.654c1.475 0 2.673-1.213 2.673-2.713V38.71c0-1.497-1.198-2.71-2.673-2.71zM108 38.677c.245 0 .441.2.441.448a.443.443 0 0 1-.441.448.443.443 0 0 1-.441-.448c0-.248.196-.448.441-.448zm0 71.24c-.937 0-1.697-.77-1.697-1.722 0-.951.76-1.723 1.697-1.723s1.697.772 1.697 1.723c0 .951-.76 1.723-1.697 1.723zm23.146-5.377H84.853V42.296h46.293v62.244z"/>
            <g fill="#97C473" fill-rule="nonzero">
                <path d="M104.08 60v7.08H97v8.84h7.08V83h8.84v-7.08H120v-8.84h-7.08V60z"/>
            </g>
        </g>
        <g transform="translate(197 127)">
            <path stroke="#D8D8D8" stroke-linecap="square" stroke-width="3" d="M153.5 86.022H.707"/>
            <mask id="f" fill="#fff">
                <use xlink:href="#d"/>
            </mask>
            <g transform="rotate(45 206.04 85.04)">
                <use fill="#000" filter="url(#e)" xlink:href="#d"/>
                <use fill="#F6F9FD" xlink:href="#d"/>
            </g>
            <g fill="#42210B" mask="url(#f)" opacity=".193">
                <path d="M185.69 216.795l.777-1.676 1.673.784 1.06-.385-20.452-9.591-.009.02-25.493 9.278.26.716 25.227-9.182 17.027 7.985-1.13 2.437 1.06-.386zm52.486-19.103l.777-1.677 1.673.785 1.06-.386-20.451-9.591-.01.02-26.333 9.584-17.35-8.137 7.91-17.061 26.542-9.66 35.37 16.587.01-.02 26.332-9.584 17.027 7.985-1.13 2.437 1.06-.386.777-1.676 1.673.784 1.06-.385-20.452-9.591-.01.02-26.332 9.584-17.351-8.138 7.91-17.06 26.542-9.661 35.37 16.587.01-.02 26.333-9.584 17.026 7.985-1.13 2.438 1.06-.386.777-1.677 1.673.785 1.06-.386-20.451-9.591-.01.02-26.333 9.584-17.35-8.137 7.91-17.061 26.542-9.66 35.37 16.587.01-.02 26.332-9.584 17.027 7.985-1.13 2.437 1.06-.386.777-1.676 1.673.784 1.06-.385-20.452-9.592-.01.02-26.332 9.585L335 130.979l7.91-17.06 26.542-9.661 33.982 15.936-.368-1.012-15.58-7.306 7.238-15.611-.349-.96-7.557 16.3-17.312-8.118 7.892-17.022 16.592 7.781-.388-1.064-33.923-15.91-.009.02-26.333 9.585-17.35-8.137 7.91-17.062 26.541-9.66 33.982 15.937-.368-1.012-15.58-7.307 7.239-15.611-.35-.96-7.557 16.301-17.312-8.119 7.892-17.022 16.592 7.781-.388-1.064-33.922-15.91-.01.02-26.333 9.585-17.35-8.137 7.91-17.061 26.542-9.66 33.981 15.936-.368-1.012-15.579-7.307 7.238-15.61-.35-.96-7.557 16.3L331.48-.993l7.892-17.022 16.591 7.782-.387-1.065-33.923-15.909-.01.02-26.333 9.584-17.35-8.137.979-2.112-.955.348-.693 1.494-1.491-.7-.956.348 20.452 9.592.009-.02 26.333-9.584 17.026 7.984-8.211 17.712-25.592 9.315-35.695-16.74-.009.02L242.824 1.5l-17.35-8.137.979-2.112-.956.347-.692 1.495-1.492-.7-.955.348 20.451 9.591.01-.02 26.333-9.584L286.178.714l-8.212 17.712-25.591 9.314L216.68 11l-.01.02-26.332 9.584-17.351-8.137.98-2.112-.956.348-.693 1.494-1.491-.7-.956.349 20.452 9.59.01-.019 26.332-9.584 17.027 7.984-8.212 17.712-25.592 9.315-35.694-16.74-.01.02-26.333 9.584-17.35-8.137.979-2.112-.956.347-.692 1.495-1.492-.7-.955.348 20.451 9.591.01-.02 26.333-9.584 17.026 7.985-8.211 17.711-25.592 9.315-35.695-16.74-.01.02-25.492 9.279.26.715 25.227-9.181 17.027 7.984-8.212 17.712-24.752 9.009.26.715 25.465-9.268 35.37 16.588.009-.02 26.333-9.584 17.027 7.985-8.212 17.711-25.592 9.315-35.694-16.74-.01.02-25.492 9.279.26.715 25.227-9.182 17.026 7.985-8.211 17.712-24.752 9.008.26.716 25.465-9.268 35.37 16.588.009-.02 26.333-9.585 17.027 7.986-8.212 17.71-25.592 9.315-35.694-16.74-.01.02-25.493 9.28.26.715 25.227-9.182 17.027 7.985-8.212 17.711-24.751 9.01.26.715 25.465-9.268 35.37 16.587.009-.02 26.333-9.584 17.026 7.985-1.13 2.438 1.06-.386zm-53.411-26.694l-7.892 17.022-17.312-8.119 7.892-17.022 17.312 8.119zm52.486-19.103l-7.892 17.021-17.312-8.118 7.893-17.022 17.311 8.119zm52.487-19.104l-7.892 17.022-17.312-8.119 7.892-17.022 17.312 8.119zm52.486-19.104l-7.892 17.022-17.312-8.118 7.893-17.022 17.311 8.118zm-70.505 10.61l-8.212 17.711-25.592 9.315-35.694-16.74-.009.02-26.333 9.584-17.351-8.137 7.91-17.061 26.542-9.66 35.37 16.587.01-.02 26.332-9.584 17.027 7.985zm52.487-19.103l-8.212 17.71-25.592 9.315-35.695-16.74-.009.02-26.333 9.585-17.35-8.137 7.91-17.062 26.542-9.66 35.37 16.588.009-.02 26.333-9.585 17.027 7.986zm52.486-19.104l-8.212 17.711-25.592 9.315-35.694-16.74-.01.02-26.332 9.584-17.351-8.137 7.91-17.061 26.542-9.66 35.37 16.587.01-.02 26.333-9.584 17.026 7.985zm-210.941 32.668l-7.892 17.022-17.312-8.119 7.893-17.022 17.311 8.119zm52.486-19.103l-7.892 17.022-17.311-8.12 7.892-17.021 17.311 8.119zm52.487-19.104l-7.892 17.022-17.312-8.119 7.892-17.022 17.312 8.119zm52.486-19.103l-7.892 17.022-17.311-8.12 7.892-17.021 17.311 8.119zm-70.505 10.61l-8.211 17.71-25.593 9.315-35.694-16.74-.009.02-26.333 9.585-17.351-8.138 7.91-17.061 26.542-9.66 35.37 16.587.01-.02 26.333-9.584 17.026 7.985zm52.487-19.104l-8.212 17.711-25.592 9.315-35.694-16.74-.01.02-26.333 9.584-17.35-8.137 7.91-17.061 26.542-9.661 35.37 16.588.009-.02 26.333-9.584 17.027 7.985zm52.486-19.104l-8.212 17.712-25.592 9.314-35.694-16.74-.009.02-26.333 9.585-17.351-8.138 7.91-17.061 26.542-9.66 35.37 16.587.01-.02 26.333-9.584 17.026 7.985zm-210.94 32.668l-7.893 17.022-17.311-8.118 7.892-17.023 17.311 8.12zm52.486-19.103l-7.892 17.022-17.312-8.119 7.892-17.022 17.312 8.119zM251.71 28.31l-7.892 17.022-17.311-8.119 7.892-17.022 17.311 8.12zm52.487-19.103l-7.893 17.022-17.311-8.119 7.892-17.022 17.312 8.119zm41.828-46.745l-15.579-7.306.98-2.113-.956.348-.693 1.494-1.491-.699-.955.348 19.063 8.94-.369-1.012z"/>
            </g>
            <g fill="#FFD07B" fill-opacity=".85" fill-rule="nonzero" mask="url(#f)">
                <path d="M236.375 115.626H230.5c-6.489 0-11.75-5.262-11.75-11.75V100.1c2.6-3.09 4.464-6.744 5.622-10.605.12-.651.747-.973 1.165-1.42 2.25-2.25 2.692-6.045 1.005-8.747-.23-.41-.644-.766-.62-1.274 0-3.446.017-6.896-.005-10.339-.092-4.157-1.28-8.48-4.194-11.558-2.353-2.487-5.583-3.968-8.916-4.601-4.212-.804-8.618-.763-12.789.298-3.615.912-7.01 3.03-9.11 6.168-1.86 2.728-2.675 6.041-2.812 9.306-.052 3.505-.012 7.02-.023 10.533.08.704-.516 1.18-.786 1.762-1.589 2.883-.89 6.81 1.664 8.908.648.447.77 1.262 1.004 1.964 1.114 3.471 2.96 6.682 5.296 9.479v3.901c0 6.49-5.262 11.75-11.75 11.75h-5.876s-10.648 2.937-17.625 17.626v5.875a5.871 5.871 0 0 0 5.875 5.874h82.25a5.871 5.871 0 0 0 5.875-5.874v-5.875c-6.977-14.687-17.625-17.625-17.625-17.625z"/>
            </g>
            <g transform="translate(238 11)">
                <rect width="28" height="27" x="2" y="17" fill="#FFF" rx="2"/>
                <path fill="#FFD07B" fill-rule="nonzero" d="M30.02 24.983c.538.022 1.096.022 1.637.002.248-1.951.63-4.036-.003-5.97L30 19l.02 5.983zM23.977 10c.016-1.797.073-3.238-.088-5.694-.076-1.15.62-4.627-1.221-4.282H7.746c-2.62.008-1.45 2.065-1.652 4.025C5.9 5.931 6.08 8.29 6 9.912L23.977 10zM6 46c.245 1.598.285 2.865.285 4.596 0 1.492-.361 4.036 1.305 4.404l15.142-.167c2.106.284.859-7.347 1.25-8.77L6 46z"/>
                <path fill="#FFD07B" fill-rule="nonzero" d="M28.538 13.046c-1.391-1.375-2.121-1.592-4.386-1.871l-15.954-.17c-2.38-.085-4.868.916-5.578 1.42C.923 13.628.11 15.308.088 17.121L0 38.358c0 1.105.116 1.667.532 2.546.394.834.71 1.468 1.385 2.145.614.616 1.278 1.332 2.138 1.617.892.292 1.854.148 2.82.334l16.883-.356c2.556.17 5.884-3.005 6.215-5.861V17.206c.146-1.593-.284-3.018-1.436-4.16zM23.805 43.71l-17.985.17h-.013c-1.025 0-2.782-1.014-3.344-1.651-.88-1.004-1.364-2.244-1.364-3.489l.044-22.214c.146-2.01 3.069-4.712 5.683-4.414l18.031.082c1.044.082 2.088.6 2.821 1.386.672.722 1.055 1.86 1.05 3.13l.005 21.48c.028 2.188-2.033 5.471-4.928 5.52z"/>
                <path fill="#FFD07B" fill-rule="nonzero" d="M27.992 15.967c.005-1.094-.317-2.1-.86-2.694-.473-.513-1.325-1.091-2.308-1.171l-17.889-.083a3.59 3.59 0 0 0-.35-.019c-2.061 0-4.432 2.236-4.541 3.809L2 38.167c0 1.078.432 2.198 1.185 3.07.44.509 2.013 1.42 2.783 1.42V43l.006-.342 17.828-.172c2.423-.04 4.217-2.985 4.198-4.876l-.008-21.643zm-4.127 8.455c-.03.337-.268 1.24-.341 1.447-.366 1.013-2.791 3.26-3.187 3.683-.435.463-2.32 2.308-2.86 2.808-.251.236-1.99 2.691-1.99 2.691-.26-.275-1.607-2.327-1.918-2.664-.303-.326-1.6-1.535-1.912-1.872-.595-.645-1.141-1.332-1.821-1.875-.356-.281-1.647-1.46-1.901-1.8-1.101-1.495-1.134-3.98-.047-5.457.478-.647 1.147-1.404 1.871-1.709 1.032-.433 2.018-.698 3.122-.42 2.072.524 2.092 2.41 2.578 3.116 0 0 .633-2.265 1.655-2.811.41-.22.953-.34 1.434-.358.53-.022 1.03.037 1.526.147.279.061 1.21.385 1.423.495.52.264.901.743 1.303 1.158.483.495.803.939.92 1.631.101.605.205 1.145.145 1.79z"/>
            </g>
        </g>
        <g transform="translate(186 -14)">
            <path stroke="#D8D8D8" stroke-linecap="square" stroke-width="3" d="M134.329 99.019L2.007 175.415"/>
            <mask id="i" fill="#fff">
                <use xlink:href="#g"/>
            </mask>
            <g transform="rotate(45 169.04 85.04)">
                <use fill="#000" filter="url(#h)" xlink:href="#g"/>
                <use fill="#F6F9FD" xlink:href="#g"/>
            </g>
            <g fill="#42210B" mask="url(#i)" opacity=".193">
                <path d="M145.757-10.582l.35 1.196-1.2.336-.366.662 14.663-4.108-.004-.014 8.832-15.933-.451-.25-8.74 15.767-12.207 3.42-.51-1.738-.367.662zm-18.183 32.803l.35 1.196-1.2.336-.366.662 14.663-4.108-.004-.014 9.123-16.457L162.58.35l3.569 12.166-9.195 16.588-25.36 7.104.004.014-9.123 16.458-12.207 3.42-.51-1.738-.367.662.35 1.196-1.2.336-.366.662 14.663-4.108-.004-.014 9.123-16.458 12.44-3.485 3.569 12.165-9.195 16.589-25.36 7.104.004.014-9.123 16.458-12.207 3.42-.51-1.738-.367.662.35 1.196-1.2.336-.366.662 14.663-4.108-.004-.014 9.123-16.457 12.44-3.486 3.569 12.166-9.195 16.588-25.36 7.104.004.014-9.123 16.458-12.207 3.42-.51-1.738-.367.662.35 1.196-1.2.336-.366.662 14.663-4.108-.004-.014 9.123-16.458 12.44-3.485 3.569 12.165-9.195 16.589-24.365 6.825.638.354 11.17-3.13 3.266 11.132.604.335-3.41-11.623 12.413-3.477 3.56 12.137-11.896 3.332.67.372 24.323-6.814-.004-.014 9.123-16.458 12.44-3.485 3.569 12.166-9.195 16.588-24.365 6.825.638.354 11.17-3.13 3.266 11.132.604.335-3.41-11.623 12.412-3.477 3.561 12.137-11.896 3.332.67.372 24.323-6.814-.004-.014 9.122-16.458 12.441-3.485 3.569 12.166-9.195 16.588-24.365 6.825.638.354 11.17-3.13 3.265 11.132.605.335-3.41-11.623 12.412-3.477 3.561 12.137-11.896 3.333.67.371 24.323-6.814-.004-.014 9.123-16.457 12.44-3.486.442 1.507.33-.598-.312-1.065 1.07-.3.33-.597-14.663 4.108.004.014-9.123 16.458-12.208 3.42-3.705-12.629 8.866-15.994 25.593-7.17-.004-.014 9.122-16.457 12.441-3.486.442 1.507.33-.597-.312-1.066 1.07-.3.33-.597-14.663 4.108.004.014-9.123 16.458-12.208 3.42-3.705-12.629L195.963 115l25.593-7.17-.004-.014 9.123-16.457 12.44-3.485.442 1.506.33-.598-.312-1.065 1.07-.3.33-.597-14.663 4.108.004.014-9.123 16.458-12.208 3.42-3.705-12.629 8.866-15.994 25.593-7.17-.004-.014 9.123-16.457 12.44-3.486.442 1.506.33-.596-.312-1.066 1.07-.3.33-.597-14.663 4.108.004.014-9.123 16.458-12.208 3.42-3.705-12.629 8.866-15.994 25.593-7.17-.004-.014 8.832-15.932-.451-.25-8.74 15.766-12.208 3.42-3.705-12.629 8.575-15.47-.45-.249-8.822 15.915-25.36 7.104.004.014-9.123 16.458-12.207 3.42-3.705-12.629 8.866-15.994 25.592-7.17-.004-.014 8.831-15.933-.45-.25-8.74 15.767-12.207 3.42-3.705-12.629 8.575-15.47-.451-.249-8.822 15.915-25.36 7.104.004.014-9.122 16.458-12.209 3.42-3.704-12.629 8.866-15.994 25.592-7.17-.004-.014 8.832-15.932-.451-.25-8.74 15.766-12.208 3.42-3.704-12.629 8.575-15.47-.451-.25-8.822 15.916-25.36 7.104.004.014-9.123 16.458-12.207 3.42-.51-1.738-.367.662zm39.027-9.89L163.04.194l12.412-3.477 3.56 12.137-12.412 3.477zm-18.183 32.803l-3.56-12.137 12.412-3.477 3.56 12.137-12.412 3.477zm-18.183 32.803l-3.56-12.137 12.412-3.477 3.56 12.137-12.412 3.477zm-18.183 32.803l-3.56-12.137 12.412-3.477 3.56 12.137-12.412 3.477zm31.121-36.4L139.47 61.71l8.866-15.994 25.592-7.17-.004-.014 9.123-16.457 12.44-3.486 3.569 12.166-9.195 16.588-25.36 7.104.004.014-9.122 16.458-12.209 3.42zm-18.183 32.803l-3.704-12.629 8.866-15.994 25.592-7.17-.004-.014 9.123-16.458 12.44-3.485 3.57 12.166-9.196 16.588-25.36 7.104.004.014-9.123 16.458-12.208 3.42zm-18.183 32.803l-3.704-12.629 8.866-15.994 25.592-7.17-.004-.014 9.123-16.457 12.44-3.486 3.569 12.166-9.195 16.588-25.36 7.104.004.014-9.123 16.458-12.208 3.42zm92.7-109.375l-3.56-12.137 12.412-3.477 3.56 12.137-12.412 3.477zm-18.183 32.803l-3.56-12.137 12.412-3.477 3.56 12.137-12.412 3.477zm-18.183 32.803l-3.56-12.137 12.412-3.477 3.56 12.137-12.412 3.477zm-18.183 32.803l-3.56-12.137 12.412-3.477 3.56 12.137-12.412 3.477zm31.122-36.4l-3.705-12.629 8.866-15.994 25.592-7.17-.004-.014 9.122-16.457 12.441-3.486 3.569 12.166-9.195 16.588-25.36 7.104.004.014-9.123 16.458-12.207 3.42zm-18.183 32.803l-3.705-12.629 8.865-15.994 25.593-7.17-.004-.014 9.123-16.458 12.44-3.484 3.569 12.165-9.195 16.588-25.36 7.104.004.014-9.123 16.458-12.207 3.42zm-18.183 32.803l-3.705-12.629 8.866-15.994 25.592-7.17-.004-.014 9.122-16.457 12.441-3.486 3.569 12.166-9.195 16.588-25.36 7.104.004.014-9.123 16.458-12.207 3.42zm92.699-109.375l-3.56-12.137 12.411-3.477 3.561 12.137-12.412 3.477zM214.23 81.614l-3.56-12.137L223.081 66l3.56 12.137-12.412 3.477zm-18.183 32.803l-3.56-12.137 12.411-3.477 3.561 12.137-12.412 3.477zm-18.183 32.803l-3.56-12.137 12.412-3.477 3.56 12.137-12.412 3.477zm-.468 42.192l11.17-3.13.442 1.507.33-.597-.312-1.066 1.07-.3.33-.597-13.668 3.83.638.353z"/>
            </g>
            <g fill="#4B63AE" fill-opacity=".85" fill-rule="nonzero" mask="url(#i)">
                <path d="M219.983 136.741V147l-99.967-.004v-10.259s-1.796-3.21 32.125-18.257c0 0 0-6.139 1.234-6.45 0 0 1.84.91 2.54-2.202-8.2 1.906-14.531-4.054-14.531-4.054 13.57 1.844 5.242-16.634 5.242-16.634-7.934-30.986 11.995-39.222 17.175-36.756 1.942-5.01 38.632-5.917 28.78 36.756 0 0-8.323 18.479 5.243 16.634 0 0-5.906 5.563-13.699 4.225.727 2.914 2.5 2.031 2.5 2.031 1.234.307 1.234 6.45 1.234 6.45 33.918 15.051 32.125 18.261 32.125 18.261z"/>
            </g>
            <g fill-rule="nonzero">
                <path fill="#4B63AE" d="M120 147c0 2.667-4 2.667-4 0s4-2.667 4 0M115.102 95.48h4.796c.052.041.102-.075.102-.238 0-.157-.05-.28-.102-.232h-4.796c-.05-.047-.102.075-.102.232 0 .163.052.279.102.238zM114 94.5c0 .667-1 .667-1 0s1-.667 1 0"/>
                <path fill="#4B63AE" d="M132.853 102.555a.126.126 0 0 0-.06 0v-7.32a4.23 4.23 0 0 0-1.244-2.994A4.257 4.257 0 0 0 128.545 91h-21.082a4.241 4.241 0 0 0-4.25 4.235v2.94a.106.106 0 0 0-.066 0 .152.152 0 0 0-.147.152v1.815c0 .08.064.149.147.15a.106.106 0 0 0 .066 0v2.312h-.066a.146.146 0 0 0-.147.144v3.63c0 .081.066.147.147.147a.157.157 0 0 0 .066 0v.865a.106.106 0 0 0-.066 0 .146.146 0 0 0-.147.144v3.63c0 .08.066.147.147.147a.157.157 0 0 0 .066 0v35.456-.002a4.241 4.241 0 0 0 4.25 4.235h21.082a4.243 4.243 0 0 0 4.249-4.235V106.44h.061-.002c.04 0 .076-.015.104-.043a.151.151 0 0 0 .043-.102v-3.594a.148.148 0 0 0-.147-.147zm-17.433-8.029h5.008a.18.18 0 0 1 .17.17.17.17 0 0 1-.17.163h-5.008a.17.17 0 0 1-.17-.163.18.18 0 0 1 .17-.17zm-2.502-.248c.171 0 .323.102.387.258a.417.417 0 1 1-.545.546.417.417 0 0 1 .158-.804zM118 149.215c-.842 0-1.6-.505-1.923-1.28a2.07 2.07 0 0 1 .45-2.262 2.087 2.087 0 0 1 2.27-.45 2.075 2.075 0 0 1 1.285 1.917 2.084 2.084 0 0 1-2.082 2.075zm13.039-5.19h-26.102V97.85h26.102v46.176z"/>
                <path fill="#FFF" d="M105 98h26v46h-26z"/>
                <path fill="#4B63AE" d="M119.316 127.815l-2.518-7.465-2.03 4.708H108l5.292-1.177L116.969 113l2.78 10.034 2.023-4.903 1.442 5.75 3.588 1.177h-4.292l-.687-1.531z"/>
            </g>
        </g>
        <g transform="translate(-21 79)">
            <mask id="l" fill="#fff">
                <use xlink:href="#j"/>
            </mask>
            <g transform="rotate(45 132.926 132.926)">
                <use fill="#000" filter="url(#k)" xlink:href="#j"/>
                <use fill="#F6F9FD" xlink:href="#j"/>
            </g>
            <g mask="url(#l)">
                <path fill="#D0D0D0" d="M187.653 41l-1.304 1.31-1.304-1.31h-1.127l15.938 16.008.015-.016H227v-.761h-26.846l-13.268-13.327L188.78 41h-1.128zm-55.855 0l-1.303 1.31L129.19 41h-1.128l15.938 16.008.015-.016h28.023l13.522 13.581L172.29 83.9h-28.244l-27.564-27.685-.016.016H88.444L75.176 42.904 77.07 41h-1.128l-1.304 1.31L73.336 41h-1.128l15.938 16.008.015-.016h28.023l13.522 13.581L116.437 83.9H88.191L60.628 56.215l-.015.016H32.589L19.321 42.904 21.216 41H20.09l-1.304 1.31L17.48 41h-1.128l15.938 16.008.015-.016h28.023l13.522 13.581L60.58 83.9H32.338L4.773 56.215l-.015.016h-28.024l-13.268-13.327L-34.64 41h-1.128l-1.303 1.31-1.304-1.31h-1.128l15.938 16.008.015-.016H4.474l13.522 13.581L4.727 83.9h-28.245L-50 57.302v1.077l12.14 12.194L-50 82.767v1.021l12.677-12.732 13.49 13.55-13.237 13.296L-50 84.915v1.133l26.436 26.552.015-.015H4.474l13.522 13.58-13.269 13.327h-28.245L-50 112.894v1.077l12.14 12.194L-50 138.36v1.02l12.677-12.732 13.49 13.55-13.237 13.296L-50 140.508v1.132l26.436 26.553.015-.016H4.474l13.522 13.58-13.269 13.328h-28.245L-50 168.487v1.077l12.14 12.194L-50 193.952v1.02l12.677-12.732 13.49 13.55-13.237 13.297L-50 196.1v1.133l26.436 26.552.015-.016H4.474l13.522 13.581-1.643 1.65h1.017l1.162-1.167L19.694 239h1.017L4.773 222.992l-.015.016h-28.024l-13.268-13.327 13.774-13.835H4.474l27.817 27.939.015-.016h28.023l13.522 13.581-1.643 1.65h1.017l1.162-1.167L75.549 239h1.016l-15.937-16.008-.015.016H32.589L19.321 209.68l13.774-13.835h27.234l27.817 27.939.015-.016h28.023l13.522 13.581-1.643 1.65h1.017l1.162-1.167 1.162 1.167h1.017l-15.938-16.008-.016.016H88.444L75.176 209.68l13.774-13.835h27.234l27.817 27.939.015-.016h28.023l13.522 13.581-1.643 1.65h1.016l1.163-1.167 1.162 1.167h1.016l-15.937-16.008-.015.016h-28.024l-13.268-13.327 13.774-13.835h27.234l27.817 27.939.015-.016H227v-.761h-26.846l-13.268-13.327 13.774-13.835H227v-.761h-27.099L172.338 167.4l-.015.016h-28.024l-13.268-13.327 13.774-13.835h27.234l27.817 27.939.015-.016H227v-.761h-26.846l-13.268-13.327 13.774-13.835H227v-.762h-27.099l-27.563-27.684-.015.015h-28.024l-13.268-13.327 13.774-13.834h27.234l27.817 27.938.015-.015H227v-.762h-26.846l-13.268-13.327 13.774-13.834H227V83.9h-27.099l-27.563-27.685-.015.016h-28.024l-13.268-13.327L132.926 41h-1.128zm41.06 43.352l13.239-13.296 13.49 13.55-13.238 13.296-13.49-13.55zm-55.854 0l13.238-13.296 13.49 13.55-13.237 13.296-13.491-13.55zm-55.855 0l13.238-13.296 13.49 13.55L74.64 97.902l-13.49-13.55zm-55.855 0l13.238-13.296 13.49 13.55-13.237 13.296-13.491-13.55zm69.882 14.144L88.95 84.662h27.234l27.817 27.938.015-.015h28.023l13.522 13.58-13.27 13.327h-28.244l-27.564-27.684-.016.015H88.444L75.176 98.496zm-55.855 0l13.774-13.834h27.234L88.146 112.6l.015-.015h28.023l13.522 13.58-13.269 13.327H88.191l-27.563-27.684-.015.015H32.589L19.321 98.496zm-55.855 0l13.774-13.834H4.474L32.291 112.6l.015-.015h28.023l13.522 13.58-13.27 13.327H32.338L4.773 111.808l-.015.015h-28.024l-13.268-13.327zm209.393 41.448l13.238-13.296 13.49 13.55-13.238 13.296-13.49-13.55zm-55.855 0l13.238-13.296 13.49 13.55-13.237 13.296-13.491-13.55zm-55.855 0l13.238-13.296 13.49 13.55-13.238 13.296-13.49-13.55zm-55.855 0l13.238-13.296 13.49 13.55-13.237 13.296-13.491-13.55zm69.882 14.145l13.774-13.835h27.234l27.817 27.939.015-.016h28.023l13.522 13.58-13.27 13.328h-28.244L116.483 167.4l-.016.016H88.444l-13.268-13.327zm-55.855 0l13.774-13.835h27.234l27.817 27.939.015-.016h28.023l13.522 13.58-13.269 13.328H88.191L60.628 167.4l-.015.016H32.589l-13.268-13.327zm-55.855 0l13.774-13.835H4.474l27.817 27.939.015-.016h28.023l13.522 13.58-13.27 13.328H32.338L4.773 167.4l-.015.016h-28.024l-13.268-13.327zm209.393 41.448l13.238-13.297 13.49 13.55-13.238 13.297-13.49-13.55zm-55.855 0l13.238-13.297 13.49 13.55-13.237 13.297-13.491-13.55zm-55.855 0l13.238-13.297 13.49 13.55-13.238 13.297-13.49-13.55zm-55.855 0l13.238-13.297 13.49 13.55-13.237 13.297-13.491-13.55zM-50 225.156l12.14 12.194-1.642 1.65h1.017l1.162-1.167 1.162 1.167h1.017L-50 224.079v1.077z"/>
                <g fill="#91B7DC" fill-opacity=".85" fill-rule="nonzero">
                    <path d="M147.7 179.213v-5.504s17.15.537 25.3-7.867c0 0-11.84-3.384-9.717-25.213 2.124-21.803-2.655-40.947-19.991-39.336 0 0-7.513-9.156-22.46-3.383-5.124 1.987-18.903 6.954-18.213 37.188C103.31 165.305 92 165.493 92 165.493s5.84 8.592 25.646 8.404v5.638L132.699 224l15.027-44.384-.027-.403z"/>
                    <path d="M188.97 223.563l-3.056-17.25c-.992-5.585-4.53-10.376-9.516-12.895l-19.14-9.638c-1.098-.548-2.17-1.178-3.243-1.78l6.032 18.18-8.444-.657L133 222.906l-18.603-23.383-8.443.657 6.165-18.18-3.833 1.999-18.684 9.419c-4.985 2.519-8.524 7.31-9.516 12.896l-3.055 17.25c-.215 1.259.723 2.436 1.983 2.436h107.918c1.314 0 2.252-1.177 2.037-2.437z"/>
                </g>
            </g>
            <path fill="#FFF" d="M32 45h69v44H32z"/>
            <path stroke="#91B7DC" stroke-linecap="square" d="M50.5 51.5h42.012M50.5 54.5h18.028M71.5 54.5h21.024M50.5 57.5h21.024M73.5 57.5h8.062M84.5 57.5h8.062"/>
            <path fill="#91B7DC" fill-rule="nonzero" d="M99.266 41.801H32.993a3.56 3.56 0 0 0-3.563 3.563l.004 42.605a3.56 3.56 0 0 0 3.563 3.562H99.27a3.56 3.56 0 0 0 3.562-3.563l-.003-42.604a3.56 3.56 0 0 0-3.563-3.563zm.566 46.09H31.977V45.329h67.855v42.562zM74.629 91.914v.777H70.16l-12.789.004v-.777l-36.344-.004v.691c.766 1.118 10.95 1.594 10.95 1.594h68.046s10.184-.476 10.95-1.594v-.691H74.628z"/>
            <path fill="#91B7DC" fill-rule="nonzero" d="M45.313 56.188h-.563a1.125 1.125 0 0 1-1.125-1.125V54.7c.249-.296.427-.646.538-1.015.012-.063.072-.093.112-.136a.695.695 0 0 0 .096-.838c-.022-.039-.062-.073-.06-.122 0-.33.002-.66 0-.99-.009-.398-.122-.812-.401-1.106a1.57 1.57 0 0 0-.854-.44 2.834 2.834 0 0 0-1.224.028c-.347.087-.672.29-.873.59-.178.262-.256.579-.269.891-.005.336-.001.672-.002 1.009.008.067-.05.113-.075.169a.697.697 0 0 0 .159.852c.062.043.074.121.096.188.107.333.283.64.507.908v.374c0 .62-.504 1.125-1.125 1.125h-.562s-1.02.28-1.688 1.687v.563c0 .31.252.562.563.562h7.875c.31 0 .562-.252.562-.562v-.563c-.668-1.406-1.687-1.687-1.687-1.687z"/>
            <g fill="#91B7DC" fill-rule="nonzero">
                <path d="M82.003 64.217a1.808 1.808 0 1 0-2.218 2.491l-7.562 5.773a1.777 1.777 0 0 0-.585-.346 1.81 1.81 0 0 0-1.717.307l-3.785-3.494c.118-.152.221-.332.287-.523a1.813 1.813 0 0 0-1.118-2.3 1.813 1.813 0 0 0-2.296 1.125c-.159.46-.12.941.07 1.352l-7.29 5.125-.01-.004a1.782 1.782 0 0 0-.603-.363 1.813 1.813 0 0 0-2.297 1.124 1.813 1.813 0 0 0 1.118 2.3 1.813 1.813 0 0 0 2.297-1.124c.159-.463.111-.945-.082-1.357l7.286-5.114c.176.161.391.279.628.36a1.79 1.79 0 0 0 1.44-.126l3.885 3.587a1.72 1.72 0 0 0-.11.25 1.813 1.813 0 0 0 1.118 2.3 1.813 1.813 0 0 0 2.297-1.125c.162-.47.117-.964-.085-1.381l7.547-5.766c.172.153.375.273.606.352a1.813 1.813 0 0 0 2.297-1.124 1.813 1.813 0 0 0-1.118-2.3zm-.236.684c.57.196.868.81.671 1.38a1.08 1.08 0 0 1-1.378.674 1.08 1.08 0 0 1-.67-1.38 1.08 1.08 0 0 1 1.377-.674zm-16.698 1.91c.57.195.868.808.671 1.38a1.08 1.08 0 0 1-1.378.673 1.08 1.08 0 0 1-.67-1.38 1.08 1.08 0 0 1 1.377-.674zm6.333 6.01c.57.195.868.808.671 1.379a1.08 1.08 0 0 1-1.378.674 1.08 1.08 0 0 1-.67-1.38 1.08 1.08 0 0 1 1.377-.674zM54.94 74.044c.57.196.867.808.67 1.38a1.08 1.08 0 0 1-1.377.674 1.08 1.08 0 0 1-.67-1.38 1.08 1.08 0 0 1 1.377-.674z"/>
            </g>
        </g>
    </g>
</svg>
