<svg xmlns="http://www.w3.org/2000/svg" width="9" height="9" viewBox="0 0 9 9">
    <g fill="#FFF" fill-rule="nonzero">
        <path d="M4.5 9C6.983 9 9 6.984 9 4.5 9 2.017 6.984 0 4.5 0A4.502 4.502 0 0 0 0 4.5C0 6.983 2.017 9 4.5 9zm0-8.262a3.762 3.762 0 1 1 0 7.525 3.762 3.762 0 0 1 0-7.525z"/>
        <path d="M3.09 5.91c.06.06.14.09.21.09.07 0 .15-.03.21-.09l.99-.99.99.99c.06.06.14.09.21.09.07 0 .15-.03.21-.09a.29.29 0 0 0 0-.42l-.99-.99.99-.99a.29.29 0 0 0 0-.42.29.29 0 0 0-.42 0l-.99.99-.99-.99a.29.29 0 0 0-.42 0 .29.29 0 0 0 0 .42l.99.99-.99.99a.29.29 0 0 0 0 .42z"/>
    </g>
</svg>
